<svg id="Calque_1_-_copie" data-name="Calque 1 - copie" xmlns="http://www.w3.org/2000/svg" viewBox="0 0 2000 2000"><defs><style>.cls-1{fill:#313c91;}.cls-2{fill:#fdfdfe;}.cls-3{fill:#fdfdfd;}.cls-4{fill:#5bc7d7;}.cls-5{fill:#fefefe;}.cls-6{fill:#333d91;}</style></defs><path class="cls-1" d="M0,1040V960a15.4,15.4,0,0,0,.93-3.09c2.67-30,4.44-60.14,8.11-90A902.55,902.55,0,0,1,56.81,667.37Q194.14,290.78,550.47,106.81c122.33-63,253-96.95,390.4-105C948.26,1.37,955.62.61,963,0h74a25.71,25.71,0,0,0,4.16.88,960.53,960.53,0,0,1,109.36,10.36,977.88,977.88,0,0,1,214,57.33c172,68.08,315.1,175.08,427.84,321.65q187.13,243.24,205.83,550.22c.43,6.87,1.21,13.71,1.82,20.56v79a22.9,22.9,0,0,0-1,3.59c-3.43,35.62-5.48,71.43-10.51,106.83a928.34,928.34,0,0,1-62.32,227q-134.42,323-438.78,495.71c-132.79,75.13-276,116.08-428.31,125.1-7.39.44-14.76,1.19-22.13,1.8H962a18,18,0,0,0-3.65-.89,963.85,963.85,0,0,1-108.87-10.34,977.9,977.9,0,0,1-214-57.34c-172-68.08-315.1-175.07-427.85-321.65Q20.53,1366.53,1.82,1059.56C1.41,1053,.61,1046.52,0,1040ZM1591.48,785.5c18.45-.33,35.15-5.42,48.38-18.92,9.37-9.55,15-21.16,13.42-34.66-1.87-16.2-10.84-28.48-24.86-36.66q-98.89-57.69-198-115.13L1205.56,449.47c-56.86-33-113.59-66.31-170.68-98.94-22.74-13-46.74-13.08-69.46-.06-65.86,37.73-131.34,76.11-197,114.24q-84.3,49-168.62,97.93-87.55,50.88-175.07,101.84c-18,10.45-36.21,20.42-53.8,31.46-30.77,19.31-33.36,56.07-2.54,77.25,23.51,16.16,48.9,16.51,74.21,3.69,10.94-5.55,21.38-12.1,32-18.27Q563.38,707,652.12,655.28q172.07-100,344.14-200.06c2.83-1.65,4.81-1.66,7.65,0q123.39,71.88,246.9,143.58Q1400,685.54,1549.2,772.36C1562.4,780.06,1576,785.65,1591.48,785.5ZM715.37,1066.72l-1-.1c-.42-1.25-.88-2.5-1.27-3.76q-25-80.49-50.1-161c-3.81-12.22-7.53-24.49-12.06-36.44-4.67-12.35-13.77-20.25-27.34-20.78a288.19,288.19,0,0,0-38.88.62c-13.32,1.31-21.79,9.87-24.36,22.31a60.12,60.12,0,0,0-1,11.92q-.07,119.24,0,238.47a81.64,81.64,0,0,0,.55,9c1.9,16.62,12.46,26.58,28.55,27,17,.48,28.16-8.66,30.85-25.54A66.16,66.16,0,0,0,620,1118q.06-88.48,0-177v-4.84c8.38,22.65,15.68,45.26,23,67.88q20.61,64.11,41.19,128.22c2.76,8.6,7.23,15.69,16,19.26,19.46,7.91,37.58-.5,44-20.4q30.89-95.91,61.8-191.79c.37-1.14.93-2.22,1.41-3.33l.65.21v5.47q0,88,0,176a72.6,72.6,0,0,0,1,12.42c2.51,14.31,12.74,23.13,27.29,23.86,15.82.78,27-6.78,30.71-21.34a58.9,58.9,0,0,0,1.66-14.32q.15-119.49.07-239c0-1,0-2,0-3-.66-19-9.64-29.51-28.57-31.46-11-1.14-22.3-.9-33.42-.46-14.29.56-23.83,8.33-29.09,21.47-1.36,3.39-2.66,6.82-3.73,10.31q-24.06,78.18-48,156.39Q720.65,1049.66,715.37,1066.72Zm207.21,419.33c-.39,2-.64,3.45-.94,4.89-2.21,10.59-4.63,21.14-6.54,31.78-.6,3.38-1.81,4.38-5.11,4.34-13.83-.15-27.66.06-41.49-.15-3.41-.05-5,1.09-6.24,4.2-3.71,9.46-7.74,18.78-11.62,28.17-1.12,2.7-2.16,5.44-3.53,8.93h64.27c1.61,9.79,2.49,19.14,4.76,28.13,7.83,31,25.52,53.46,57.71,61.34,29.49,7.23,58.14,3.81,84.5-11.61,36.34-21.26,58.58-54,73-92.72a11.46,11.46,0,0,0,.27-2.29c-16.54,0-32.85-.09-49.16.16-1.36,0-3.07,2.07-4,3.57-4.92,8.29-9.07,17.1-14.58,25-9.16,13.1-21.52,22.09-37.42,25.72-26.06,6-47.21-4.86-55.34-28.47-.94-2.72-1.51-5.57-2.42-9h43.89c13.77,0,13.78,0,19-12.64,3.84-9.35,7.66-18.7,11.79-28.78H967.76c2.73-12.36,5.45-24,7.8-35.73.78-3.9,2.52-5,6.38-4.94,23.66.18,47.32,0,71,.15,3,0,4.82-.76,6-3.78,4.46-11.12,9.21-22.14,13.8-33.21a33.85,33.85,0,0,0,1.12-4.23H993c5.36-7.2,9.55-13.57,14.49-19.3,11.1-12.85,24.54-22.3,41.88-24.06,27.05-2.73,46.24,7,50.35,36.3.69,4.9,1,9.84,1.54,14.69a7.75,7.75,0,0,0,1.75.51c15.83,0,31.66.14,47.49-.07,1.22,0,3.27-2.06,3.49-3.4a98.81,98.81,0,0,0-2.41-41.58c-6.46-24.5-19.34-44.3-43.85-53.43-36.29-13.52-71.51-9.73-104.4,10.76-29.3,18.25-49.55,44.59-64.13,75.51-1.52,3.22-3.29,4.32-6.78,4.28-15.16-.17-30.32.07-45.48-.16-4.06-.07-6.24,1-7.74,5-3.59,9.49-7.71,18.79-11.58,28.18-1,2.39-1.84,4.85-3,8ZM999,1039c25.19,0,49.68.28,74.15-.13a167.31,167.31,0,0,0,30.73-3c31.21-6.46,55-23.07,67.69-53.18,7.38-17.44,8.79-35.77,6.41-54.42-4.13-32.37-20.13-56.21-50.58-69.45-16.62-7.22-34.16-9.74-52.12-9.79q-51.72-.15-103.45,0a93.32,93.32,0,0,0-12.93,1c-14.72,2.1-24.23,11-26.91,25.51a90.64,90.64,0,0,0-1.28,16.38q-.12,112.2-.05,224.4c0,3,0,6,.31,9a30.37,30.37,0,0,0,21.94,26.91c25.31,7.72,46-7.39,46.07-33.81.09-24.49,0-49,0-73.47Zm294,52.65V882.34c0-2.33,0-4.67-.13-7-1.29-18.3-13.08-30-31.45-31.23-18.56-1.25-32.63,8.76-36,26a61.77,61.77,0,0,0-.7,11.95q-.06,112,0,223.92c0,3.67,0,7.34.33,11,1.31,16.87,10.37,27.56,26.29,30.78a63.08,63.08,0,0,0,12.41,1.23c48,.09,96,.24,144-.15a54.11,54.11,0,0,0,20.15-4.68c10.13-4.33,14.82-13.07,14.78-24s-4.91-19.72-15.07-23.83a60.94,60.94,0,0,0-21.7-4.41c-35.48-.44-71-.2-106.46-.2Z" transform="translate(0 0)"/><path class="cls-2" d="M1591.48,785.5c-15.52.15-29.08-5.44-42.28-13.14q-149.09-87-298.39-173.57Q1127.35,527,1003.91,455.21c-2.84-1.65-4.82-1.64-7.65,0q-172,100.11-344.14,200.06-88.79,51.6-177.5,103.33c-10.62,6.17-21.06,12.72-32,18.27-25.31,12.82-50.7,12.47-74.21-3.69C337.59,752,340.18,715.25,371,695.94c17.59-11,35.84-21,53.8-31.46q87.54-50.93,175.07-101.84,84.3-49,168.62-97.93c65.64-38.13,131.12-76.51,197-114.24,22.72-13,46.72-12.94,69.46.06,57.09,32.63,113.82,65.91,170.68,98.94l224.91,130.66q99,57.54,198,115.13c14,8.18,23,20.46,24.86,36.66,1.57,13.5-4,25.11-13.42,34.66C1626.63,780.08,1609.93,785.17,1591.48,785.5Z" transform="translate(0 0)"/><path class="cls-3" d="M715.37,1066.72q5.26-17.07,10.53-34.13,24-78.19,48-156.39c1.07-3.49,2.37-6.92,3.73-10.31,5.26-13.14,14.8-20.91,29.09-21.47,11.12-.44,22.38-.68,33.42.46,18.93,2,27.91,12.44,28.57,31.46,0,1,0,2,0,3q0,119.49-.07,239a58.9,58.9,0,0,1-1.66,14.32c-3.72,14.56-14.89,22.12-30.71,21.34-14.55-.73-24.78-9.55-27.29-23.86a72.6,72.6,0,0,1-1-12.42q-.09-88,0-176v-5.47l-.65-.21c-.48,1.11-1,2.19-1.41,3.33q-30.91,95.88-61.8,191.79c-6.41,19.9-24.53,28.31-44,20.4-8.78-3.57-13.25-10.66-16-19.26q-20.55-64.12-41.19-128.22c-7.27-22.62-14.57-45.23-23-67.88V941q0,88.5,0,177a66.16,66.16,0,0,1-.76,10.44c-2.69,16.88-13.81,26-30.85,25.54-16.09-.45-26.65-10.41-28.55-27a81.64,81.64,0,0,1-.55-9q0-119.24,0-238.47a60.12,60.12,0,0,1,1-11.92c2.57-12.44,11-21,24.36-22.31a288.19,288.19,0,0,1,38.88-.62c13.57.53,22.67,8.43,27.34,20.78,4.53,11.95,8.25,24.22,12.06,36.44q25.13,80.46,50.1,161c.39,1.26.85,2.51,1.27,3.76Z" transform="translate(0 0)"/><path class="cls-4" d="M922.58,1486.05h-58c1.17-3.13,2-5.59,3-8,3.87-9.39,8-18.69,11.58-28.18,1.5-4,3.68-5.05,7.74-5,15.16.23,30.32,0,45.48.16,3.49,0,5.26-1.06,6.78-4.28,14.58-30.92,34.83-57.26,64.13-75.51,32.89-20.49,68.11-24.28,104.4-10.76,24.51,9.13,37.39,28.93,43.85,53.43a98.81,98.81,0,0,1,2.41,41.58c-.22,1.34-2.27,3.38-3.49,3.4-15.83.21-31.66.11-47.49.07a7.75,7.75,0,0,1-1.75-.51c-.5-4.85-.85-9.79-1.54-14.69-4.11-29.25-23.3-39-50.35-36.3-17.34,1.76-30.78,11.21-41.88,24.06-4.94,5.73-9.13,12.1-14.49,19.3h80.89a33.85,33.85,0,0,1-1.12,4.23c-4.59,11.07-9.34,22.09-13.8,33.21-1.21,3-3,3.79-6,3.78-23.66-.11-47.32,0-71-.15-3.86,0-5.6,1-6.38,4.94-2.35,11.72-5.07,23.37-7.8,35.73h75.61c-4.13,10.08-7.95,19.43-11.79,28.78-5.2,12.64-5.21,12.64-19,12.64H968.71c.91,3.42,1.48,6.27,2.42,9,8.13,23.61,29.28,34.43,55.34,28.47,15.9-3.63,28.26-12.62,37.42-25.72,5.51-7.87,9.66-16.68,14.58-25,.89-1.5,2.6-3.55,4-3.57,16.31-.25,32.62-.16,49.16-.16a11.46,11.46,0,0,1-.27,2.29c-14.39,38.73-36.63,71.46-73,92.72-26.36,15.42-55,18.84-84.5,11.61-32.19-7.88-49.88-30.31-57.71-61.34-2.27-9-3.15-18.34-4.76-28.13H847.11c1.37-3.49,2.41-6.23,3.53-8.93,3.88-9.39,7.91-18.71,11.62-28.17,1.22-3.11,2.83-4.25,6.24-4.2,13.83.21,27.66,0,41.49.15,3.3,0,4.51-1,5.11-4.34,1.91-10.64,4.33-21.19,6.54-31.78C921.94,1489.5,922.19,1488.05,922.58,1486.05Z" transform="translate(0 0)"/><path class="cls-5" d="M999,1039v5.93c0,24.49.07,49,0,73.47-.1,26.42-20.76,41.53-46.07,33.81A30.37,30.37,0,0,1,931,1125.3c-.27-3-.31-6-.31-9q0-112.2.05-224.4A90.64,90.64,0,0,1,932,875.53C934.67,861,944.18,852.12,958.9,850a93.32,93.32,0,0,1,12.93-1q51.74-.1,103.45,0c18,.05,35.5,2.57,52.12,9.79,30.45,13.24,46.45,37.08,50.58,69.45,2.38,18.65,1,37-6.41,54.42-12.72,30.11-36.48,46.72-67.69,53.18a167.31,167.31,0,0,1-30.73,3C1048.68,1039.28,1024.19,1039,999,1039Zm.18-53.2c24.79,0,49.37,1.63,73.63-.44,26.46-2.25,41.25-24.32,37-50.58-2.72-17-15.69-29.88-35.81-31.44-24.51-1.91-49.22-1.37-73.85-1.86-.28,0-.56.3-1,.56Z" transform="translate(0 0)"/><path class="cls-5" d="M1293,1091.65h6.35c35.49,0,71-.24,106.46.2a60.94,60.94,0,0,1,21.7,4.41c10.16,4.11,15,12.86,15.07,23.83s-4.65,19.69-14.78,24a54.11,54.11,0,0,1-20.15,4.68c-48,.39-96,.24-144,.15a63.08,63.08,0,0,1-12.41-1.23c-15.92-3.22-25-13.91-26.29-30.78-.29-3.65-.33-7.32-.33-11q0-112,0-223.92a61.77,61.77,0,0,1,.7-11.95c3.41-17.19,17.48-27.2,36-26,18.37,1.25,30.16,12.93,31.45,31.23.17,2.32.13,4.66.13,7v209.31Z" transform="translate(0 0)"/><path class="cls-6" d="M999.18,985.8V902c.46-.26.74-.57,1-.56,24.63.49,49.34-.05,73.85,1.86,20.12,1.56,33.09,14.47,35.81,31.44,4.2,26.26-10.59,48.33-37,50.58C1048.55,987.43,1024,985.8,999.18,985.8Z" transform="translate(0 0)"/></svg>